<svg width="36" height="41" viewBox="0 0 36 41" fill="none" xmlns="http://www.w3.org/2000/svg">
<path d="M32 4.1C33.0609 4.1 34.0783 4.53196 34.8284 5.30086C35.5786 6.06976 36 7.11261 36 8.2V36.9C36 37.9874 35.5786 39.0302 34.8284 39.7991C34.0783 40.568 33.0609 41 32 41H4C2.93913 41 1.92172 40.568 1.17157 39.7991C0.421427 39.0302 0 37.9874 0 36.9V8.2C0 7.11261 0.421427 6.06976 1.17157 5.30086C1.92172 4.53196 2.93913 4.1 4 4.1H12.36C13.2 1.722 15.4 0 18 0C20.6 0 22.8 1.722 23.64 4.1H32ZM18 4.1C17.4696 4.1 16.9609 4.31598 16.5858 4.70043C16.2107 5.08488 16 5.60631 16 6.15C16 6.69369 16.2107 7.21512 16.5858 7.59957C16.9609 7.98402 17.4696 8.2 18 8.2C18.5304 8.2 19.0391 7.98402 19.4142 7.59957C19.7893 7.21512 20 6.69369 20 6.15C20 5.60631 19.7893 5.08488 19.4142 4.70043C19.0391 4.31598 18.5304 4.1 18 4.1ZM8 12.3V8.2H4V36.9H32V8.2H28V12.3H8ZM18 16.4C19.0609 16.4 20.0783 16.832 20.8284 17.6009C21.5786 18.3698 22 19.4126 22 20.5C22 21.5874 21.5786 22.6302 20.8284 23.3991C20.0783 24.168 19.0609 24.6 18 24.6C16.9391 24.6 15.9217 24.168 15.1716 23.3991C14.4214 22.6302 14 21.5874 14 20.5C14 19.4126 14.4214 18.3698 15.1716 17.6009C15.9217 16.832 16.9391 16.4 18 16.4ZM10 32.8V30.75C10 28.495 13.58 26.65 18 26.65C22.42 26.65 26 28.495 26 30.75V32.8H10Z" fill="#414141"/>
</svg>
