<svg width="36" height="37" viewBox="0 0 36 37" fill="none" xmlns="http://www.w3.org/2000/svg">
<path d="M33.567 13.6763L31.0438 11.0848L32.3955 9.65018L26.6283 3.72669L25.2315 5.11501L22.6633 2.47721L24.015 1.04262C24.7059 0.333033 25.562 -0.0143546 26.5832 0.0004541C27.6045 0.0152628 28.4606 0.378076 29.1514 1.08889L34.9637 7.05865C35.6546 7.76824 36 8.63948 36 9.67239C36 10.7053 35.6546 11.5772 34.9637 12.288L33.567 13.6763ZM11.9399 35.9356C11.2491 36.6452 10.4008 37 9.39514 37C8.38949 37 7.54063 36.6452 6.84856 35.9356L1.0363 29.9659C0.345431 29.2563 0 28.385 0 27.3521C0 26.3192 0.345431 25.4474 1.0363 24.7365L2.38798 23.3482L4.95619 25.986L3.55945 27.3743L9.37171 33.3441L10.7234 31.9095L13.2916 34.5473L11.9399 35.9356ZM29.8273 20.3865L32.3955 17.7487L18.7434 3.72669L16.1752 6.36449L29.8273 20.3865ZM17.2115 33.3441L19.7797 30.66L6.17272 16.6843L3.55945 19.3221L17.2115 33.3441ZM16.9412 22.5152L21.8974 17.471L19.0138 14.5093L14.1026 19.5998L16.9412 22.5152ZM19.7797 35.9356C19.0889 36.6452 18.2328 37 17.2115 37C16.1902 37 15.3342 36.6452 14.6433 35.9356L1.0363 21.9599C0.345431 21.2503 0 20.3711 0 19.3221C0 18.2732 0.345431 17.3939 1.0363 16.6843L3.60451 14.0465C4.29537 13.3369 5.14363 12.9821 6.14929 12.9821C7.15494 12.9821 8.0038 13.3369 8.69587 14.0465L11.5344 16.962L16.4906 11.8715L13.6521 9.00229C12.9612 8.29271 12.6158 7.41344 12.6158 6.36449C12.6158 5.31555 12.9612 4.43628 13.6521 3.72669L16.2203 1.08889C16.9111 0.37931 17.76 0.0245183 18.7669 0.0245183C19.7737 0.0245183 20.622 0.37931 21.3116 1.08889L34.9637 15.1109C35.6546 15.8205 36 16.6917 36 17.7246C36 18.7575 35.6546 19.6294 34.9637 20.3402L32.3955 22.978C31.7046 23.6876 30.8486 24.0424 29.8273 24.0424C28.806 24.0424 27.9499 23.6876 27.2591 22.978L24.4656 20.0625L19.5094 25.153L22.3479 28.0685C23.0388 28.7781 23.3842 29.6499 23.3842 30.6841C23.3842 31.7182 23.0388 32.5895 22.3479 33.2978L19.7797 35.9356Z" fill="#414141"/>
</svg>
