<svg width="37" height="37" viewBox="0 0 37 37" fill="none" xmlns="http://www.w3.org/2000/svg">
<path d="M3 29.9697C3 27.926 3.81184 25.9661 5.25692 24.521C6.70201 23.0759 8.66196 22.264 10.7056 22.264H26.1169C28.1605 22.264 30.1205 23.0759 31.5655 24.521C33.0106 25.9661 33.8225 27.926 33.8225 29.9697C33.8225 30.9915 33.4166 31.9715 32.694 32.694C31.9715 33.4166 30.9915 33.8225 29.9697 33.8225H6.85281C5.83098 33.8225 4.851 33.4166 4.12846 32.694C3.40592 31.9715 3 30.9915 3 29.9697Z" stroke="#414141" stroke-width="5" stroke-linejoin="round"/>
<path d="M18.4112 14.5584C21.6029 14.5584 24.1904 11.971 24.1904 8.77921C24.1904 5.58744 21.6029 3 18.4112 3C15.2194 3 12.632 5.58744 12.632 8.77921C12.632 11.971 15.2194 14.5584 18.4112 14.5584Z" stroke="#414141" stroke-width="5"/>
</svg>
